:SAMPLES-PER-SECOND 30
:FULLY-SPECIFIED
:DEGREES
314
root  -3.1957 40.9413 1.11028 175.129 -83.4204 -175.787
RightUpLeg  5.20366 -1.59321 -2.52865
RightLeg  -3.61841 -12.6319 0.523637
RightFoot  0.882526 -0.455316 4.24648
RightToes  -3.11842e-008 1.75238e-005 3.56266e-009
Spine  -5.56008 -3.58836 -9.31887
Spine1  12.3151 -6.70089 12.2245
HEad  -16.861 -6.0544 13.151
LeftShoulder1  3.15357 -6.84587 -24.2669
LeftArm  -15.3489 -11.3051 -36.9959
LeftForeArm  151.245 -47.8495 -167.549
LeftHand  0.464032 -8.72902 -3.3912
RightShoulder  2.7956 5.98171 23.2963
RightArm  -33.8899 14.2393 35.6409
RightForeArm  114.675 50.3245 164.344
RightHand  0.218825 8.27089 1.49344
LeftUpLeg  5.67755 1.64641 1.59497
LeftLeg  -3.65339 20.4629 -1.99228
LeftFoot  -0.228195 0.110639 -1.03324
LeftToes  4.7713e-008 1.46693e-008 1.32589e-009
315
root  -3.22539 40.9339 1.13462 175.217 -82.4789 -175.923
RightUpLeg  5.12912 -1.48038 -2.50184
RightLeg  -3.53056 -11.7967 0.380735
RightFoot  0.827043 -0.455961 4.25415
RightToes  -3.11842e-008 1.75238e-005 3.56266e-009
Spine  -6.33035 -3.5987 -8.38248
Spine1  13.6738 -6.61081 11.1942
HEad  -16.4131 -5.48535 12.3185
LeftShoulder1  3.13712 -6.60227 -24.8698
LeftArm  -13.8132 -5.3151 -36.7442
LeftForeArm  155.256 -45.992 -168.515
LeftHand  0.720336 -10.4862 -4.85412
RightShoulder  3.13982 6.49794 25.3411
RightArm  -27.597 8.7597 34.8102
RightForeArm  122.636 48.1836 165.728
RightHand  0.523815 8.51078 3.94387
LeftUpLeg  5.89339 1.67761 1.56422
LeftLeg  -3.66113 21.3326 -2.01193
LeftFoot  -0.412502 0.126285 -1.29417
LeftToes  4.7713e-008 1.46693e-008 1.32589e-009
316
root  -3.20272 40.9334 1.16078 175.337 -81.9398 -176.001
RightUpLeg  4.91584 -1.43438 -2.50547
RightLeg  -3.43037 -11.3144 0.315197
RightFoot  0.872897 -0.458719 4.30331
RightToes  -3.11842e-008 1.75238e-005 3.56266e-009
Spine  -7.12707 -3.49356 -7.74627
Spine1  14.9616 -6.49012 10.6522
HEad  -16.0637 -4.76562 11.783
LeftShoulder1  3.04578 -6.30886 -24.868
LeftArm  -15.3197 -3.28021 -36.9167
LeftForeArm  156.429 -45.9997 -168.581
LeftHand  0.75098 -10.0286 -5.21405
RightShoulder  3.10129 6.28566 25.6261
RightArm  -23.7455 6.28519 35.172
RightForeArm  133.084 47.7872 166.44
RightHand  0.645563 9.93802 4.46669
LeftUpLeg  5.87662 1.59505 1.47196
LeftLeg  -3.69866 21.949 -1.97229
LeftFoot  -0.349751 0.111048 -1.13281
LeftToes  4.7713e-008 1.46693e-008 1.32589e-009
317
root  -3.16366 40.9392 1.16605 175.387 -81.6774 -176.035
RightUpLeg  4.80338 -1.43161 -2.51087
RightLeg  -3.45831 -11.0653 0.338705
RightFoot  1.01121 -0.456203 4.27753
RightToes  -3.11842e-008 1.75238e-005 3.56266e-009
Spine  -7.00463 -3.13111 -7.37279
Spine1  14.4017 -6.05732 10.552
HEad  -14.751 -4.67382 10.5382
LeftShoulder1  2.99205 -6.25561 -24.4633
LeftArm  -17.8633 -3.47103 -37.419
LeftForeArm  155.358 -47.6807 -167.877
LeftHand  0.413056 -8.32928 -3.0775
RightShoulder  2.99037 6.08286 25.1189
RightArm  -22.5049 6.31999 35.9421
RightForeArm  134.75 48.0405 166.43
RightHand  0.54824 9.31678 3.91464
LeftUpLeg  5.85969 1.52427 1.44261
LeftLeg  -3.78587 22.2784 -1.95004
LeftFoot  -0.343377 0.145491 -1.49028
LeftToes  4.7713e-008 1.46693e-008 1.32589e-009
318
root  -3.1074 40.9513 1.15639 176.151 -81.6123 -176.563
RightUpLeg  4.44915 -1.39683 -2.534
RightLeg  -3.49151 -11.0973 0.326279
RightFoot  1.18521 -0.451896 4.22909
RightToes  -3.11842e-008 1.75238e-005 3.56266e-009
Spine  -6.8427 -2.82155 -7.01298
Spine1  13.3971 -5.52444 10.153
HEad  -12.0663 -3.69602 9.77624
LeftShoulder1  2.83112 -5.97928 -23.6244
LeftArm  -20.244 -5.00544 -38.1796
LeftForeArm  152.533 -50.0725 -166.697
LeftHand  0.097256 -6.52489 -0.641084
RightShoulder  2.91713 5.94787 24.7767
RightArm  -22.6187 7.67681 36.3337
RightForeArm  131.153 48.7762 165.906
RightHand  0.363712 9.12985 2.4982
LeftUpLeg  5.62583 1.31914 1.30035
LeftLeg  -4.06063 22.6065 -1.97496
LeftFoot  -0.0833892 0.133931 -1.36027
LeftToes  4.7713e-008 1.46693e-008 1.32589e-009
319
root  -3.07827 40.9624 1.13125 176.616 -81.9495 -176.789
RightUpLeg  4.28712 -1.42534 -2.55522
RightLeg  -3.6946 -11.4212 0.434856
RightFoot  1.3173 -0.449334 4.2111
RightToes  -3.11842e-008 1.75238e-005 3.56266e-009
Spine  -6.70424 -2.59185 -6.69564
Spine1  12.0133 -5.05635 9.79905
HEad  -9.72661 -3.1061 8.39042
LeftShoulder1  2.82913 -6.00304 -23.5227
LeftArm  -21.4092 -6.59612 -38.8417
LeftForeArm  148.749 -53.452 -164.844
LeftHand  -0.0835757 -5.45061 1.27352
RightShoulder  2.89617 6.06917 24.1275
RightArm  -23.2016 8.52903 36.8395
RightForeArm  127.476 49.9864 165.144
RightHand  0.121546 8.65019 0.615005
LeftUpLeg  5.38735 1.10825 1.20621
LeftLeg  -4.30233 22.5347 -1.9297
LeftFoot  0.15443 0.136083 -1.36737
LeftToes  4.7713e-008 1.46693e-008 1.32589e-009
320
root  -3.04579 40.9653 1.10389 176.672 -82.358 -176.712
RightUpLeg  4.23806 -1.44853 -2.53206
RightLeg  -3.87148 -11.7488 0.54515
RightFoot  1.4046 -0.435482 4.01947
RightToes  -3.11842e-008 1.75238e-005 3.56266e-009
Spine  -6.43079 -2.16069 -6.14288
Spine1  10.5172 -4.37806 9.31302
HEad  -8.0601 -2.5486 7.29555
LeftShoulder1  2.91328 -6.31891 -23.4186
LeftArm  -21.3486 -7.66106 -39.926
LeftForeArm  142.756 -56.85 -162.485
LeftHand  -0.269235 -3.38123 3.76647
RightShoulder  2.81316 5.94473 23.6241
RightArm  -23.1269 9.21942 37.4631
RightForeArm  125.414 51.8283 164.123
RightHand  -0.0544176 8.4048 -0.839864
LeftUpLeg  5.17389 1.09027 1.25556
LeftLeg  -4.35316 22.1892 -1.94248
LeftFoot  0.279113 0.129452 -1.21379
LeftToes  4.7713e-008 1.46693e-008 1.32589e-009
321
root  -3.02131 40.9649 1.07286 177.062 -82.8559 -177.112
RightUpLeg  4.22878 -1.53624 -2.58387
RightLeg  -3.75808 -12.1152 0.587886
RightFoot  1.27991 -0.430386 3.96358
RightToes  -3.11842e-008 1.75238e-005 3.56266e-009
Spine  -5.77881 -1.82287 -5.46226
Spine1  8.76849 -3.69696 8.35077
HEad  -6.88267 -3.0931 6.11539
LeftShoulder1  2.99335 -6.43576 -23.8909
LeftArm  -19.7185 -7.51816 -41.0599
LeftForeArm  140.505 -59.7253 -160.392
LeftHand  -0.34327 -2.99926 4.98239
RightShoulder  2.91756 6.17562 24.0128
RightArm  -22.2232 9.34036 37.4765
RightForeArm  123.671 53.5797 163.086
RightHand  -0.348225 8.26667 -3.31871
LeftUpLeg  5.1587 1.04268 1.23368
LeftLeg  -4.49542 21.7926 -1.96437
LeftFoot  0.343896 0.145407 -1.41487
LeftToes  4.7713e-008 1.46693e-008 1.32589e-009
322
root  -3.00593 40.9631 1.03883 177.36 -83.611 -177.402
RightUpLeg  4.2739 -1.59226 -2.59572
RightLeg  -3.6745 -12.7546 0.621266
RightFoot  1.13858 -0.430131 4.002
RightToes  -3.11842e-008 1.75238e-005 3.56266e-009
Spine  -4.85933 -1.5908 -5.25501
Spine1  6.88337 -3.28737 8.07509
HEad  -6.90654 -2.51049 4.54972
LeftShoulder1  3.3269 -7.0278 -25.4402
LeftArm  -18.4715 -6.34953 -40.7874
LeftForeArm  138.317 -60.8692 -159.327
LeftHand  -0.346367 -2.76551 5.14741
RightShoulder  2.94358 6.19106 24.2467
RightArm  -20.1976 8.64842 37.6212
RightForeArm  122.759 54.5651 162.467
RightHand  -0.538737 8.33719 -4.92704
LeftUpLeg  4.93652 0.983269 1.21936
LeftLeg  -4.24388 21.1548 -1.80626
LeftFoot  0.286505 0.154591 -1.53409
LeftToes  4.7713e-008 1.46693e-008 1.32589e-009
323
root  -2.99308 40.9582 1.00821 178.448 -84.0929 -178.318
RightUpLeg  3.94703 -1.63277 -2.64099
RightLeg  -3.28233 -13.1569 0.538785
RightFoot  0.910978 -0.406963 3.84737
RightToes  -3.11842e-008 1.75238e-005 3.56266e-009
Spine  -4.08693 -1.22869 -4.6367
Spine1  5.05338 -2.63071 7.19235
HEad  -6.65 -1.85923 3.57545
LeftShoulder1  3.63618 -7.48473 -27.0109
LeftArm  -15.9732 -4.33822 -40.7615
LeftForeArm  140.53 -60.5968 -159.722
LeftHand  -0.308626 -3.10559 4.46579
RightShoulder  3.015 6.24643 24.8273
RightArm  -17.3083 7.83631 37.5055
RightForeArm  123.948 54.3493 162.661
RightHand  -0.430892 7.64399 -4.19425
LeftUpLeg  4.61112 0.930256 1.18485
LeftLeg  -4.09374 20.7122 -1.79448
LeftFoot  0.232216 0.153602 -1.50672
LeftToes  4.7713e-008 1.46693e-008 1.32589e-009
